<?xml version="1.0" standalone="no"?>
<!DOCTYPE svg PUBLIC "-//W3C//DTD SVG 20010904//EN"
 "http://www.w3.org/TR/2001/REC-SVG-20010904/DTD/svg10.dtd">
<svg version="1.0" xmlns="http://www.w3.org/2000/svg"
 width="557.000000pt" height="557.000000pt" viewBox="0 0 557.000000 557.000000"
 preserveAspectRatio="xMidYMid meet">
<metadata>
Created by potrace 1.14, written by Peter Selinger 2001-2017
</metadata>
<g transform="translate(0.000000,557.000000) scale(0.100000,-0.100000)"
fill="#000000" stroke="none">
<path d="M390 3289 c29 -40 28 -90 -4 -159 -45 -96 -34 -144 58 -255 59 -70
67 -94 48 -130 l-15 -30 34 26 c19 14 45 41 58 60 13 19 20 25 16 14 -4 -11
-9 -49 -11 -85 -1 -36 0 -55 2 -44 11 48 34 56 168 58 122 1 125 2 154 29 15
15 43 54 62 87 35 63 73 90 127 90 l28 1 -30 25 c-43 35 -137 62 -204 58 -93
-6 -203 -59 -232 -111 -18 -33 -28 -28 -19 10 12 56 2 145 -23 200 -30 66 -96
133 -161 163 -70 33 -82 31 -56 -7z"/>
<path d="M1269 3186 c-1 0 -2 -155 -3 -343 -1 -321 0 -343 16 -344 10 0 38 -1
63 -1 25 0 63 1 85 1 l40 1 2 235 3 234 87 -142 c120 -196 109 -185 133 -140
40 78 147 273 149 273 1 0 1 -103 1 -230 -1 -126 2 -230 5 -231 9 -1 174 -1
188 0 9 1 12 77 12 346 l0 345 -113 -3 c-144 -3 -152 -8 -215 -134 l-48 -96
-40 79 c-71 143 -88 153 -256 152 -60 0 -109 -1 -109 -2z"/>
<path d="M2164 3178 c-5 -7 -7 -366 -5 -625 l1 -53 103 0 102 0 -1 230 c0 126
2 230 5 230 3 0 49 -70 101 -155 52 -85 97 -151 101 -147 6 6 22 36 124 227
20 39 39 72 42 75 2 2 3 -98 2 -223 -1 -125 0 -229 3 -232 4 -4 135 -8 183 -6
21 1 21 6 20 344 l0 342 -115 0 c-145 0 -155 -6 -213 -126 -23 -49 -45 -89
-49 -89 -4 0 -28 40 -52 89 -59 116 -83 129 -239 129 -59 0 -110 -5 -113 -10z"/>
<path d="M3112 3178 c-55 -14 -98 -64 -122 -141 -14 -46 -15 -57 -4 -57 7 0
17 6 21 13 9 15 54 47 66 47 4 0 7 -122 5 -270 l-3 -270 125 -1 c239 -2 334 1
371 13 73 21 119 90 119 176 0 48 -23 95 -64 128 l-36 30 22 13 c41 21 72 78
76 139 3 50 0 63 -26 103 -49 76 -74 83 -307 85 -120 2 -217 -2 -243 -8z m367
-142 c18 -19 21 -30 15 -60 -9 -51 -39 -68 -124 -70 -38 -2 -73 0 -78 3 -7 5
-10 138 -4 149 1 1 39 2 85 2 75 0 86 -2 106 -24z m-12 -274 c36 -27 40 -73
10 -108 -24 -27 -31 -29 -110 -32 l-84 -4 -1 81 -1 81 82 0 c62 0 87 -5 104
-18z"/>
<path d="M4010 3183 c-23 -9 -60 -45 -75 -73 -14 -27 -187 -601 -183 -605 5
-5 53 -7 134 -6 l82 1 17 70 c12 50 22 70 34 71 65 4 184 3 192 -2 5 -3 18
-34 28 -70 l18 -64 97 -3 c90 -3 97 -1 92 15 -2 10 -27 92 -55 183 -27 91 -72
237 -98 325 l-49 160 -110 2 c-60 1 -116 -1 -124 -4z m130 -278 c18 -60 35
-116 38 -122 3 -10 -14 -13 -67 -13 -39 0 -71 1 -71 3 0 2 13 57 30 123 16 65
30 121 30 123 0 15 12 -18 40 -114z"/>
<path d="M4603 3178 c-18 -5 -44 -24 -60 -44 l-27 -36 0 -290 c-1 -159 2 -295
5 -300 7 -10 187 -14 196 -4 4 4 7 545 4 663 -1 18 -7 21 -43 21 -24 0 -57 -5
-75 -10z"/>
<path d="M4905 3178 c-33 -18 -65 -50 -80 -82 -38 -76 -44 -312 -10 -423 22
-72 70 -133 130 -163 47 -23 58 -24 215 -23 91 0 174 3 185 6 11 3 23 6 28 6
4 1 7 39 7 86 l0 85 -32 -6 c-45 -8 -206 -8 -256 1 -22 3 -46 12 -52 19 -19
23 -28 160 -16 247 12 94 10 93 192 94 l159 0 3 83 3 82 -228 0 c-147 -1 -235
-5 -248 -12z"/>
<path d="M356 2916 c-3 -13 -31 -45 -61 -71 -57 -49 -92 -98 -99 -140 -4 -22
0 -25 40 -31 59 -9 138 2 184 26 21 11 40 17 42 15 3 -3 5 1 6 8 1 6 5 27 8
45 6 33 -11 64 -73 132 -13 14 -23 28 -23 32 0 18 -18 6 -24 -16z"/>
<path d="M615 2706 c-15 -15 -25 -36 -25 -54 0 -64 53 -165 107 -206 24 -17
25 -17 39 1 29 35 43 82 48 153 3 41 12 83 21 96 8 13 14 24 13 25 -2 0 -42 3
-90 6 -83 4 -88 4 -113 -21z"/>
<path d="M3501 2393 c-36 -24 -26 -51 25 -73 48 -21 53 -38 16 -51 -17 -7 -27
-4 -40 11 -22 26 -36 26 -22 -1 23 -42 92 -40 106 3 8 25 -10 45 -47 53 -33 8
-49 32 -29 45 15 9 41 2 52 -14 4 -6 10 -7 14 -3 9 9 -12 34 -36 40 -10 3 -28
-2 -39 -10z"/>
<path d="M4311 2400 c-31 -7 -43 -40 -23 -62 8 -10 23 -18 32 -18 9 0 24 -6
34 -13 17 -12 17 -15 2 -30 -18 -18 -44 -13 -63 11 -15 18 -26 11 -17 -11 3
-9 19 -20 36 -26 26 -9 33 -7 54 14 20 21 23 28 14 45 -6 12 -24 23 -40 27
-41 8 -57 29 -32 42 14 8 24 6 38 -4 22 -17 34 -19 34 -6 0 17 -45 37 -69 31z"/>
<path d="M1250 2390 c0 -5 11 -10 25 -10 24 0 25 -2 23 -65 -2 -43 1 -65 8
-65 7 0 12 19 12 48 0 78 1 82 21 82 11 0 23 5 26 10 4 6 -17 10 -54 10 -34 0
-61 -4 -61 -10z"/>
<path d="M1389 2373 c-4 -97 -3 -113 6 -113 6 0 9 14 9 30 -1 28 1 30 37 30
38 0 39 -1 39 -35 0 -19 5 -35 10 -35 6 0 10 32 10 75 0 43 -4 75 -10 75 -5 0
-10 -14 -10 -31 0 -29 -2 -30 -37 -27 -34 3 -38 6 -37 31 1 15 -3 27 -7 27 -5
0 -9 -12 -10 -27z"/>
<path d="M1535 2328 l0 -73 53 -3 c31 -2 52 1 52 7 0 6 -20 11 -45 11 -42 0
-45 2 -43 25 2 22 7 25 40 25 21 0 38 5 38 11 0 6 -12 10 -27 9 -44 -3 -49 -1
-50 20 -2 17 4 20 43 20 24 0 44 5 44 10 0 6 -24 10 -53 10 l-53 0 1 -72z"/>
<path d="M1729 2368 c-4 -99 5 -118 57 -118 23 0 37 6 44 19 13 25 13 131 0
131 -6 0 -10 -27 -10 -60 0 -48 -4 -61 -19 -69 -13 -7 -24 -6 -37 3 -15 11
-18 25 -16 70 1 32 -3 56 -8 56 -6 0 -11 -15 -11 -32z"/>
<path d="M1875 2325 c0 -46 4 -74 10 -72 5 2 9 27 8 55 -1 29 0 52 1 52 2 0
20 -25 40 -55 20 -30 41 -55 46 -55 6 0 10 32 10 75 0 43 -4 75 -10 75 -5 0
-10 -26 -10 -57 l0 -58 -38 57 c-20 32 -42 58 -47 58 -7 0 -11 -30 -10 -75z"/>
<path d="M2026 2337 c2 -83 3 -87 12 -87 5 0 8 34 8 75 -1 43 -5 75 -11 75 -6
0 -9 -27 -9 -63z"/>
<path d="M2098 2386 c-26 -20 -30 -80 -7 -109 21 -28 50 -39 70 -26 8 4 19 3
26 -3 8 -6 17 -8 20 -4 4 4 2 10 -4 14 -8 5 -9 13 -3 22 17 26 11 79 -10 100
-23 23 -67 26 -92 6z m73 -17 c29 -29 23 -85 -8 -82 -16 2 -21 -2 -17 -12 8
-19 -6 -19 -31 -1 -37 26 -16 116 27 116 4 0 17 -9 29 -21z"/>
<path d="M2240 2342 c0 -32 6 -65 13 -74 18 -23 51 -27 75 -9 21 16 25 36 23
104 -2 60 -19 42 -18 -20 0 -64 -20 -91 -54 -72 -15 8 -19 21 -19 69 0 33 -4
60 -10 60 -6 0 -10 -26 -10 -58z"/>
<path d="M2390 2325 l0 -75 56 0 c34 0 53 4 49 10 -3 6 -23 10 -44 10 -44 0
-51 4 -44 31 4 15 14 19 47 19 34 1 38 2 23 11 -11 6 -30 9 -43 6 -20 -3 -24
0 -24 19 0 21 5 24 40 24 22 0 40 5 40 10 0 6 -22 10 -50 10 l-50 0 0 -75z"/>
<path d="M2580 2325 l0 -75 39 0 c53 0 94 44 61 65 -6 4 -8 15 -5 26 13 40 -3
59 -51 59 l-44 0 0 -75z m80 36 c0 -12 -9 -20 -25 -23 -29 -6 -35 -2 -35 24 0
13 8 18 30 18 23 0 30 -5 30 -19z m-1 -50 c23 -15 5 -41 -29 -41 -25 0 -30 4
-30 25 0 19 5 25 23 25 12 0 28 -4 36 -9z"/>
<path d="M2719 2383 c-3 -49 1 -95 11 -113 15 -27 75 -28 90 -1 13 25 13 131
0 131 -6 0 -10 -27 -10 -60 0 -48 -4 -61 -19 -69 -33 -18 -54 8 -53 67 1 28
-3 54 -8 57 -6 3 -11 -2 -11 -12z"/>
<path d="M2872 2384 c-16 -29 -2 -53 39 -64 27 -8 39 -16 39 -29 0 -28 -47
-34 -65 -8 -16 23 -31 17 -21 -8 18 -47 110 -27 104 22 -2 21 -12 29 -45 41
-48 15 -53 26 -21 43 18 10 24 8 39 -9 19 -25 33 -18 18 9 -13 25 -74 26 -87
3z"/>
<path d="M3005 2325 c0 -45 4 -74 10 -72 9 3 15 110 7 135 -10 31 -17 6 -17
-63z"/>
<path d="M3060 2326 c0 -48 4 -76 11 -76 6 0 10 16 9 38 -4 77 -1 78 36 19 19
-31 40 -57 45 -57 5 0 9 34 9 76 0 43 -4 73 -9 69 -5 -3 -9 -20 -9 -38 1 -72
-1 -73 -35 -18 -47 79 -57 77 -57 -13z"/>
<path d="M3209 2370 c0 -16 -1 -46 -1 -65 0 -19 1 -39 1 -45 1 -5 26 -10 57
-10 35 0 53 4 49 10 -4 6 -12 10 -18 9 -7 -1 -24 -1 -39 0 -23 1 -28 6 -28 26
0 23 4 25 41 25 26 0 38 4 34 11 -4 6 -22 8 -40 6 -29 -4 -34 -1 -38 19 -4 22
-1 24 39 24 24 0 44 5 44 10 0 6 -22 10 -50 10 -49 0 -50 -1 -51 -30z"/>
<path d="M3351 2381 c-15 -27 -4 -50 28 -57 32 -8 51 -22 51 -39 0 -22 -39
-24 -65 -3 -19 15 -25 16 -25 5 0 -23 26 -39 61 -35 65 6 64 62 -2 84 -41 14
-47 29 -18 45 20 10 25 9 42 -12 l19 -24 -3 25 c-3 21 -10 26 -41 28 -28 2
-39 -1 -47 -17z"/>
<path d="M3686 2378 c-32 -45 -18 -104 27 -123 26 -11 35 -10 54 2 23 15 32
43 13 43 -5 0 -10 -5 -10 -10 0 -6 -10 -15 -22 -19 -32 -12 -58 13 -58 55 0
51 56 79 82 40 4 -6 10 -7 14 -3 14 13 -19 37 -52 37 -23 0 -38 -7 -48 -22z"/>
<path d="M3820 2325 l0 -75 45 0 c25 0 45 5 45 10 0 6 -16 10 -35 10 l-35 0 0
65 c0 37 -4 65 -10 65 -6 0 -10 -32 -10 -75z"/>
<path d="M3935 2348 c3 -83 11 -98 50 -98 50 0 65 21 65 91 0 33 -4 59 -10 59
-6 0 -10 -27 -10 -60 0 -63 -14 -82 -51 -73 -21 6 -21 6 -23 77 -1 27 -7 51
-12 53 -7 2 -11 -15 -9 -49z"/>
<path d="M4082 2325 l1 -75 34 0 c19 0 43 5 54 10 21 12 26 56 7 63 -10 3 -10
7 -1 17 12 13 7 40 -11 52 -6 4 -28 8 -48 8 l-38 0 2 -75z m82 46 c8 -13 -9
-29 -34 -32 -21 -3 -26 1 -28 22 -3 23 0 25 28 21 16 -2 32 -7 34 -11z m1 -76
c0 -15 -8 -21 -32 -23 -30 -3 -33 -1 -33 23 0 24 3 26 33 23 24 -2 32 -8 32
-23z"/>
<path d="M4418 2388 c-8 -23 -2 -132 8 -135 5 -2 9 30 9 72 0 69 -6 93 -17 63z"/>
<path d="M4470 2325 c0 -43 4 -75 10 -75 6 0 10 26 10 58 l1 57 35 -57 c37
-61 49 -69 56 -40 8 34 2 126 -8 129 -7 2 -10 -14 -9 -47 1 -28 -2 -53 -6 -56
-5 -3 -9 0 -9 6 0 16 -59 100 -70 100 -6 0 -10 -34 -10 -75z"/>
<path d="M4636 2384 c-53 -52 -6 -158 59 -134 26 10 50 38 41 48 -4 4 -13 0
-19 -9 -21 -27 -46 -30 -67 -9 -25 25 -26 64 -1 89 19 19 61 19 61 0 0 -5 7
-9 17 -9 14 0 14 2 -2 20 -22 24 -67 26 -89 4z"/>
<path d="M4768 2393 c-3 -7 -2 -87 1 -130 1 -16 101 -18 101 -3 0 6 -20 10
-44 10 -37 0 -44 3 -41 18 2 9 4 20 4 25 1 4 19 7 42 7 47 0 45 16 -2 18 -29
1 -48 14 -49 35 0 4 20 7 45 7 25 0 45 5 45 10 0 11 -97 14 -102 3z"/>
<path d="M4960 2381 c-12 -24 2 -28 20 -6 17 20 27 19 40 -5 9 -17 5 -26 -30
-62 -22 -23 -40 -46 -40 -50 0 -4 23 -8 51 -8 31 0 48 4 44 10 -3 6 -20 10
-37 10 l-30 0 36 40 c29 32 34 44 27 62 -11 32 -65 37 -81 9z"/>
<path d="M5076 2368 c-14 -33 -11 -84 6 -105 17 -20 56 -15 69 8 14 27 6 109
-12 120 -28 17 -50 9 -63 -23z m64 -38 c0 -66 -14 -84 -43 -56 -17 17 -15 80
4 102 18 22 39 -2 39 -46z"/>
<path d="M5202 2392 c-16 -10 -27 -72 -18 -105 3 -13 16 -29 30 -35 35 -16 59
14 59 73 0 63 -31 92 -71 67z m52 -67 c1 -52 -19 -75 -43 -50 -20 19 -16 87 6
103 24 17 35 2 37 -53z"/>
<path d="M5321 2352 c-39 -60 -39 -69 -1 -66 24 2 30 -2 30 -17 0 -10 5 -19
10 -19 6 0 10 9 10 21 0 11 5 17 10 14 6 -3 10 -1 10 4 0 6 -4 11 -10 11 -5 0
-10 23 -10 50 0 28 -4 50 -9 50 -5 0 -23 -22 -40 -48z m29 -22 c0 -23 -4 -30
-20 -30 -20 0 -20 1 -5 30 9 17 18 30 20 30 3 0 5 -13 5 -30z"/>
</g>
</svg>
